<?xml version="1.0" standalone="no"?>
<!DOCTYPE svg PUBLIC "-//W3C//DTD SVG 20010904//EN"
 "http://www.w3.org/TR/2001/REC-SVG-20010904/DTD/svg10.dtd">
<svg version="1.0" xmlns="http://www.w3.org/2000/svg"
 width="1024.000000pt" height="1024.000000pt" viewBox="0 0 1024.000000 1024.000000"
 preserveAspectRatio="xMidYMid meet">
<metadata>
Created by potrace 1.11, written by Peter Selinger 2001-2013
</metadata>
<g transform="translate(0.000000,1024.000000) scale(0.100000,-0.100000)"
fill="#000000" stroke="none">
<path d="M5218 9907 c-259 -368 -379 -553 -535 -821 -121 -209 -336 -556 -435
-703 -43 -65 -75 -103 -86 -103 -9 0 -39 7 -67 16 -79 25 -322 23 -454 -4 -57
-12 -111 -28 -120 -35 -9 -7 -46 -28 -83 -46 -53 -25 -94 -58 -185 -148 -65
-64 -128 -130 -139 -147 -13 -18 -50 -46 -90 -66 l-69 -35 -83 -160 c-199
-384 -252 -547 -252 -769 l0 -61 -157 -67 c-597 -253 -1100 -477 -1228 -545
-82 -44 -298 -176 -479 -294 -287 -187 -347 -231 -477 -347 -82 -73 -149 -137
-149 -141 0 -5 20 -51 45 -104 72 -156 98 -253 99 -382 l1 -110 -49 -113 c-66
-152 -65 -150 -104 -118 l-31 27 -20 -69 c-12 -38 -21 -76 -21 -85 0 -26 84
-171 162 -281 191 -268 248 -337 455 -546 117 -118 215 -221 218 -230 10 -31
21 -140 16 -148 -3 -5 -53 -39 -111 -76 -58 -37 -169 -123 -248 -192 l-142
-125 20 -38 c110 -216 147 -439 96 -573 -31 -82 -86 -198 -94 -198 -3 0 -16
10 -29 22 -29 27 -34 21 -61 -59 l-20 -62 42 -78 c23 -43 66 -114 96 -158 225
-334 351 -474 867 -962 336 -318 476 -461 643 -661 47 -55 90 -103 95 -105 21
-9 241 43 451 108 127 39 319 109 459 167 270 112 521 216 830 344 116 47 586
251 1045 451 459 201 855 374 880 384 25 11 56 33 70 49 l25 30 85 -56 c47
-31 114 -71 150 -88 61 -29 72 -31 175 -31 96 0 120 4 190 29 159 57 281 128
390 227 52 47 72 59 98 59 62 0 152 31 273 94 111 58 137 67 290 101 291 64
825 203 1189 310 193 57 465 129 605 160 140 32 297 67 349 79 l94 21 34 52
c18 29 42 57 52 62 33 18 53 87 53 191 1 152 -43 348 -161 730 -34 107 -61
200 -61 206 0 7 21 17 48 23 26 7 106 30 177 51 72 21 148 43 171 49 34 9 44
18 60 53 10 23 33 57 51 74 100 100 62 330 -151 922 -42 116 -76 217 -76 222
0 6 6 10 13 10 6 0 25 23 40 50 16 28 38 56 49 63 11 7 29 30 41 52 18 34 21
57 20 150 0 169 -43 354 -178 774 -36 112 -65 221 -65 243 0 48 35 121 90 191
22 27 40 54 40 59 0 15 -111 233 -203 398 -118 214 -201 324 -377 505 -170
175 -248 248 -267 249 -10 0 -66 28 -125 61 -89 49 -107 63 -103 80 9 42 -356
253 -575 331 -68 25 -126 46 -127 48 -2 2 10 54 27 117 l30 114 -30 26 c-16
14 -30 35 -30 47 0 23 -16 30 -22 11 -2 -6 -75 50 -163 124 -88 73 -258 205
-377 293 -203 148 -234 168 -455 278 -131 65 -341 179 -468 254 -308 182 -720
406 -825 449 -47 19 -98 43 -115 53 -16 10 -48 23 -70 30 -22 7 -81 32 -132
56 l-92 43 -233 -332z m306 84 c61 -28 161 -71 221 -96 165 -70 484 -241 840
-453 116 -69 320 -180 455 -247 135 -67 259 -133 275 -147 17 -13 104 -78 194
-142 157 -112 571 -449 571 -464 0 -4 -46 -61 -103 -128 -317 -374 -460 -546
-717 -863 -157 -193 -295 -369 -306 -390 -12 -21 -44 -65 -70 -99 -74 -92
-265 -395 -367 -581 -50 -91 -117 -206 -149 -255 -33 -49 -66 -103 -75 -120
-9 -17 -49 -82 -90 -144 -76 -116 -132 -236 -205 -442 -23 -63 -44 -118 -48
-123 -3 -4 -13 1 -22 10 -14 16 -12 27 21 123 l36 105 -1 280 c-1 229 -4 293
-19 351 l-17 71 39 79 c22 44 89 164 149 267 60 103 126 217 146 253 20 36 76
127 124 202 47 75 103 163 123 194 20 32 217 328 439 658 221 331 402 605 402
610 0 6 -11 10 -24 10 -27 0 -44 -18 -168 -181 -49 -63 -137 -178 -197 -256
-103 -135 -252 -357 -296 -441 -11 -21 -39 -65 -63 -98 -75 -103 -462 -731
-587 -952 -70 -125 -122 -207 -126 -199 -4 6 -16 48 -28 92 -12 44 -26 89 -31
100 -5 11 -25 64 -45 117 l-36 97 42 83 c67 133 371 630 571 933 163 247 487
796 501 850 3 11 8 30 12 43 6 21 4 23 -26 20 -31 -3 -40 -15 -229 -328 -108
-179 -259 -422 -335 -540 -191 -297 -544 -879 -545 -898 -1 -9 -40 -56 -43
-51 -1 2 -15 29 -31 59 -16 30 -42 74 -58 97 -15 23 -28 46 -28 52 0 28 168
308 337 561 105 157 200 303 211 326 12 23 36 61 54 85 68 89 476 745 485 780
4 14 0 19 -14 19 -19 0 -89 -93 -127 -167 -9 -18 -24 -40 -34 -50 -24 -24 -56
-69 -279 -398 -586 -864 -601 -888 -648 -983 -21 -45 -41 -82 -45 -82 -10 1
-180 239 -180 252 0 32 269 498 452 781 581 903 538 832 538 881 0 50 -15 60
-42 29 -8 -10 -94 -146 -190 -303 -96 -157 -253 -404 -348 -550 -95 -146 -238
-371 -318 -500 -79 -129 -148 -239 -152 -243 -4 -5 -55 39 -114 97 l-107 105
44 73 c25 40 72 125 106 188 82 151 355 566 648 982 162 232 173 250 173 293
0 44 -10 55 -36 37 -6 -4 -33 -39 -60 -78 -27 -39 -80 -115 -119 -168 -38 -54
-102 -143 -142 -199 -87 -123 -443 -682 -573 -897 -113 -188 -110 -185 -135
-165 -11 9 -65 47 -120 84 -55 38 -99 73 -98 79 10 45 258 465 404 684 147
220 179 274 179 303 0 19 -3 35 -7 34 -5 0 -44 -46 -88 -101 -44 -55 -94 -117
-110 -137 -17 -20 -53 -67 -80 -104 -28 -37 -76 -101 -107 -141 -31 -41 -72
-105 -92 -143 -19 -38 -50 -89 -68 -114 -41 -53 -94 -153 -104 -192 -9 -39
-16 -40 -55 -8 -19 15 -58 40 -86 56 -29 15 -53 32 -53 37 0 5 19 42 42 81
232 401 332 551 504 748 61 70 105 130 109 148 8 38 -2 73 -20 69 -16 -4 -199
-212 -346 -393 -106 -131 -263 -374 -338 -524 -23 -44 -42 -81 -44 -81 -1 0
-37 13 -79 28 l-78 28 34 49 c72 109 289 460 393 640 61 105 149 251 197 325
89 139 528 769 535 770 3 0 54 -22 115 -49z m-1659 -1794 c11 -2 36 0 56 6 28
7 52 4 108 -13 39 -11 71 -25 71 -30 0 -4 15 -12 33 -16 17 -4 34 -8 37 -9 39
-11 151 -77 189 -112 14 -12 39 -28 55 -35 17 -6 70 -41 119 -76 66 -48 87
-69 87 -87 0 -29 26 -53 41 -38 8 8 6 11 -7 10 -10 -1 -20 5 -22 15 -3 14 1
15 32 4 19 -7 43 -19 53 -27 10 -8 34 -25 53 -39 54 -37 140 -114 140 -125 0
-5 14 -21 32 -35 53 -42 63 -52 136 -141 90 -108 105 -135 90 -163 -10 -19
-10 -20 6 -6 16 12 19 12 26 -1 5 -8 20 -27 34 -42 49 -52 164 -222 189 -277
13 -30 35 -72 49 -92 27 -40 108 -237 108 -263 0 -8 16 -56 35 -105 19 -50 53
-154 75 -233 47 -168 66 -368 57 -587 -6 -152 -12 -182 -61 -293 -9 -21 -16
-48 -16 -61 0 -54 -149 -326 -179 -326 -4 0 -25 -17 -48 -37 -25 -23 -69 -48
-110 -62 -37 -13 -77 -30 -88 -37 -23 -15 -38 -13 -100 10 -22 8 -49 15 -60
16 -30 0 -177 60 -280 113 -209 109 -293 164 -277 183 4 4 1 4 -6 0 -12 -7
-90 26 -102 43 -3 4 -23 20 -44 37 -22 16 -54 42 -70 57 -26 23 -29 29 -16 38
13 9 13 10 0 6 -8 -2 -25 5 -38 17 l-23 21 33 12 c26 10 27 12 6 8 -14 -3 -33
-8 -42 -11 -12 -5 -39 16 -91 67 -41 41 -75 78 -75 82 0 5 -40 48 -89 96 -48
48 -110 120 -135 159 -26 40 -52 74 -57 77 -5 3 -30 38 -56 78 -149 224 -332
642 -309 702 3 8 16 16 28 16 18 1 19 2 5 6 -10 3 -24 0 -31 -6 -10 -9 -16 -5
-25 16 -22 57 -43 150 -46 213 -2 36 -7 81 -10 100 -4 19 -8 44 -9 55 0 11 -5
23 -9 26 -12 9 -24 169 -25 314 -1 307 68 514 225 678 61 64 140 115 184 119
29 3 86 -3 164 -15z m4281 -28 c164 -56 311 -135 571 -307 123 -81 223 -149
223 -152 0 -3 -46 -18 -103 -34 -176 -50 -324 -113 -537 -229 -986 -536 -1682
-1213 -2095 -2039 -59 -120 -114 -218 -120 -218 -16 0 15 161 56 295 30 94
105 247 196 395 21 36 72 126 113 200 206 379 574 921 887 1307 188 233 682
823 689 823 1 0 55 -18 120 -41z m-5090 -782 c2 -554 156 -1063 454 -1501 79
-116 225 -282 419 -477 226 -225 383 -334 721 -496 207 -100 219 -104 415
-148 l30 -7 -30 -24 c-52 -43 -95 -56 -202 -61 -270 -14 -580 95 -795 280 -29
25 -93 80 -143 122 -176 151 -518 481 -598 577 -210 254 -345 525 -417 837
-60 259 -65 485 -16 672 19 73 150 409 159 409 1 0 2 -82 3 -183z m5869 34
c94 -68 188 -149 294 -253 178 -174 261 -272 315 -373 21 -38 56 -98 79 -133
22 -34 38 -64 36 -66 -2 -2 -101 -18 -219 -34 -484 -68 -1258 -302 -1705 -514
-245 -116 -812 -425 -1123 -611 -177 -106 -210 -130 -249 -180 -26 -31 -47
-56 -49 -54 -2 1 10 43 25 93 31 99 155 352 250 508 74 123 274 365 461 559
226 234 414 355 1093 707 216 112 257 137 257 155 0 29 -37 45 -103 46 l-52 0
45 19 c36 15 502 226 506 229 1 1 63 -44 139 -98z m-6261 -928 l13 -62 -254
-127 -253 -126 0 -47 c0 -43 6 -54 64 -126 81 -100 235 -243 380 -350 62 -45
144 -117 183 -160 l71 -78 145 60 145 60 87 -88 86 -88 -38 -16 c-21 -9 -105
-44 -188 -77 -211 -85 -513 -228 -700 -333 -108 -59 -257 -158 -455 -300 -162
-116 -305 -218 -318 -226 -27 -17 -28 -30 -4 -59 l19 -23 159 114 c198 143
757 473 994 586 175 85 581 263 597 263 5 0 39 -31 76 -68 l68 -69 -183 -78
c-442 -188 -835 -411 -1318 -748 -159 -111 -160 -112 -160 -165 0 -33 3 -43
13 -39 8 3 101 62 208 132 544 357 1117 687 1374 791 l130 52 60 -56 c33 -32
77 -72 99 -90 21 -18 37 -35 35 -37 -2 -1 -76 -36 -164 -77 -148 -68 -725
-380 -840 -453 -27 -18 -122 -83 -210 -146 -88 -63 -222 -154 -298 -202 -133
-86 -163 -117 -113 -117 13 0 177 92 367 206 189 113 445 260 569 327 124 66
268 143 320 172 52 28 177 91 277 139 l181 87 70 -46 c91 -58 221 -121 295
-142 72 -20 92 -6 -219 -141 -404 -175 -673 -301 -924 -432 -135 -70 -452
-231 -705 -358 l-461 -230 -79 86 c-43 48 -334 366 -646 707 -535 585 -962
1077 -956 1101 3 13 270 252 312 279 17 10 159 103 317 206 170 111 358 224
460 277 180 94 623 287 1033 452 l240 96 13 -75 c7 -42 19 -104 26 -138z
m6890 -277 c64 -112 116 -206 116 -210 0 -3 -10 -6 -23 -6 -38 0 -379 -58
-559 -95 -386 -80 -939 -232 -1364 -376 -337 -114 -391 -135 -679 -261 -93
-41 -231 -98 -305 -128 -74 -29 -146 -64 -161 -76 -14 -13 -35 -24 -48 -24
-23 0 -111 47 -111 59 0 24 374 326 516 417 77 49 576 297 659 327 177 64 634
245 870 344 214 90 290 117 430 152 149 37 396 76 506 80 l37 1 116 -204z
m-6830 39 c28 -86 33 -134 15 -152 -14 -14 -2 -56 14 -50 7 2 14 16 17 32 5
27 7 24 34 -36 25 -56 30 -86 42 -229 7 -91 16 -185 19 -210 5 -42 4 -44 -12
-27 -26 26 -82 290 -72 336 13 55 11 69 -12 82 l-21 11 7 -149 c3 -81 11 -163
15 -182 l9 -34 -34 33 -35 34 0 126 c0 120 -6 150 -32 150 -4 0 -8 -55 -8
-121 0 -108 -2 -120 -15 -109 -9 7 -14 19 -11 27 3 7 1 23 -3 36 -5 12 -12 31
-16 41 -4 14 -9 16 -17 8 -7 -7 -7 -19 0 -41 6 -17 9 -31 7 -31 -13 0 -180
138 -237 197 -66 67 -68 69 -58 104 5 19 23 48 39 64 35 33 323 186 332 177 4
-4 18 -43 33 -87z m186 -445 c0 -25 13 -93 28 -152 l29 -108 -23 0 c-16 0 -21
5 -18 18 3 9 -9 84 -26 166 -36 177 -37 191 -10 151 12 -19 20 -47 20 -75z
m6729 0 c-42 -88 -35 -175 16 -198 14 -6 27 -23 31 -38 7 -28 0 -139 -10 -165
-4 -9 4 -31 19 -53 29 -43 29 -44 13 -43 -41 4 -355 -18 -543 -38 -270 -29
-555 -78 -865 -151 -129 -30 -305 -71 -390 -90 -254 -59 -660 -160 -900 -224
-124 -33 -234 -58 -246 -55 -11 2 -25 15 -31 28 -10 22 -6 29 40 75 l52 51
205 56 c427 116 870 219 1335 311 342 68 369 72 870 104 88 6 164 15 169 20 5
5 15 26 22 47 12 35 12 40 -9 60 -22 22 -24 22 -177 13 -146 -10 -413 -40
-525 -60 -204 -37 -606 -117 -730 -145 -82 -19 -222 -51 -310 -71 -178 -40
-378 -91 -625 -159 -91 -25 -178 -48 -194 -52 l-29 -6 27 36 c23 30 45 42 139
75 62 23 186 68 277 102 275 103 329 120 790 260 69 21 220 67 335 103 236 73
532 142 800 187 99 17 239 41 310 54 181 33 168 37 134 -34z m-6618 -150 c0
-19 4 -46 8 -60 l7 -24 22 22 c24 24 32 27 32 12 0 -10 -51 -40 -68 -40 -7 0
-42 138 -42 165 1 27 40 -45 41 -75z m2789 -590 c-35 -71 -72 -111 -87 -96 -3
2 13 26 34 53 22 26 50 65 62 86 38 63 33 41 -9 -43z m-5370 -135 c84 -93 273
-291 420 -440 284 -287 458 -476 767 -831 l192 -222 29 -178 c16 -99 29 -180
27 -182 -5 -6 -326 331 -550 578 -207 230 -293 320 -653 682 l-315 316 12 45
c14 49 3 98 -59 259 -17 43 -30 94 -30 114 0 21 1 35 3 33 2 -2 73 -80 157
-174z m9320 97 c0 -10 9 -42 19 -72 10 -30 22 -97 26 -148 10 -126 13 -124
-208 -168 -201 -40 -523 -120 -687 -170 -319 -98 -611 -193 -750 -244 -344
-128 -583 -227 -740 -305 -91 -45 -247 -119 -347 -164 -100 -46 -189 -92 -199
-102 -21 -23 -49 -24 -97 -4 -50 21 -53 32 -21 66 32 33 28 36 -21 12 l-35
-17 -35 34 c-34 33 -35 33 -125 31 l-90 -1 -40 62 c-21 34 -38 63 -37 64 1 1
37 14 80 28 243 81 449 232 522 379 31 64 7 56 270 87 172 20 407 71 750 164
406 110 579 159 695 195 382 118 547 165 702 201 95 22 214 51 263 64 50 13
93 24 98 25 4 0 7 -7 7 -17z m-3831 -80 l-11 -32 -28 23 -27 22 36 11 c20 6
37 10 39 9 1 -1 -3 -16 -9 -33z m107 -159 c-8 -15 -15 -25 -16 -21 0 12 23 58
27 54 3 -2 -2 -17 -11 -33z m224 -3 c8 -5 11 -10 5 -10 -5 0 -17 5 -25 10 -8
5 -10 10 -5 10 6 0 17 -5 25 -10z m-920 -76 c20 1 33 -13 75 -81 37 -61 55
-82 68 -79 26 6 21 0 -26 -33 -51 -35 -115 -96 -179 -171 -58 -67 -66 -64
-120 41 -44 86 -47 127 -15 184 25 43 157 161 166 147 3 -5 17 -9 31 -8z
m1068 -9 c20 -14 33 -25 29 -25 -5 0 -25 11 -45 25 -20 14 -33 25 -29 25 5 0
25 -11 45 -25z m-391 -17 c-3 -8 -6 -5 -6 6 -1 11 2 17 5 13 3 -3 4 -12 1 -19z
m583 -51 c0 -2 -10 -12 -22 -23 -16 -13 -19 -14 -10 -2 10 13 10 17 0 21 -7 3
-3 6 10 6 12 1 22 -1 22 -2z m-1705 -60 c-14 -23 -25 -57 -27 -75 -2 -29 -6
-33 -58 -48 -55 -16 -187 -63 -415 -148 -168 -62 -594 -234 -930 -376 -55 -23
-152 -64 -216 -90 -65 -26 -296 -139 -515 -250 -388 -196 -401 -204 -467 -271
l-69 -68 22 -31 c12 -16 26 -30 31 -30 5 0 85 44 177 97 443 256 1004 529
1652 801 138 57 778 282 805 282 5 0 18 -21 29 -46 25 -61 59 -100 95 -107 26
-6 71 -58 71 -84 0 -5 -46 -24 -102 -42 -345 -112 -738 -255 -898 -326 -194
-86 -557 -252 -795 -362 -148 -69 -485 -221 -620 -280 -108 -47 -498 -204
-500 -200 -1 1 -30 45 -65 97 -102 152 -123 218 -99 314 l10 42 502 266 c276
146 554 290 617 321 63 30 246 116 405 192 160 76 295 141 300 145 6 4 69 32
140 63 555 234 563 237 714 238 95 1 164 6 223 18 4 0 -4 -18 -17 -42z m1655
0 c0 -2 -10 -12 -22 -23 l-23 -19 19 23 c18 21 26 27 26 19z m3204 -82 c-28
-65 -30 -107 -8 -161 14 -34 14 -37 1 -24 -9 8 -20 39 -25 69 -8 46 -7 61 9
99 l19 45 -37 -7 c-78 -14 -179 -35 -203 -42 -15 -4 -22 -3 -17 2 5 5 70 23
145 40 75 18 138 32 139 33 1 0 -9 -24 -23 -54z m-3343 -35 c-13 -11 -28 -20
-35 -20 -6 0 3 9 19 19 39 25 46 25 16 1z m3063 10 c-9 -9 -63 -21 -267 -61
-53 -10 -119 -26 -145 -35 -26 -9 -63 -20 -82 -25 -19 -4 -62 -15 -95 -24 -33
-9 -67 -17 -75 -19 -8 -1 -28 -8 -44 -15 -16 -6 -66 -23 -110 -37 -45 -14 -94
-31 -111 -39 -16 -8 -73 -28 -125 -46 -96 -31 -111 -37 -165 -59 -16 -7 -75
-27 -130 -45 -55 -18 -113 -39 -130 -45 -44 -18 -64 -25 -125 -45 -30 -10 -83
-31 -118 -46 -35 -16 -66 -29 -70 -29 -4 0 -61 -23 -127 -51 -179 -77 -336
-142 -367 -152 -19 -7 -25 -27 -7 -27 6 0 19 5 30 11 11 6 25 9 32 6 6 -2 -16
-13 -51 -25 -34 -11 -62 -18 -62 -14 1 17 48 60 75 70 17 6 102 41 190 77 324
136 402 167 480 195 44 16 145 52 225 80 163 58 397 141 570 201 63 22 138 47
165 54 28 8 93 26 145 40 52 15 156 40 230 56 74 16 160 36 190 43 71 17 87
19 74 6z m-3839 -185 c28 -44 85 -134 127 -200 110 -176 212 -338 333 -530 60
-93 136 -215 170 -270 34 -55 95 -152 135 -215 40 -63 94 -149 120 -190 25
-41 72 -115 104 -165 31 -49 88 -139 125 -200 38 -60 76 -118 85 -128 15 -16
14 -18 -11 -28 -60 -24 -69 -28 -108 -45 -48 -21 -112 -60 -143 -88 l-23 -20
-33 34 c-19 19 -63 91 -98 160 -119 231 -308 534 -463 740 -39 52 -91 124
-115 160 -23 36 -50 73 -58 83 -9 10 -17 25 -18 33 -1 9 -10 24 -18 33 -9 10
-16 21 -16 24 0 4 -20 38 -44 75 -24 37 -84 132 -133 212 -50 80 -116 184
-147 232 -31 48 -56 93 -56 98 0 12 39 92 49 100 4 3 14 16 23 30 8 14 47 61
84 105 55 64 70 76 73 60 2 -11 27 -56 56 -100z m648 108 c-7 -2 -19 -2 -25 0
-7 3 -2 5 12 5 14 0 19 -2 13 -5z m-150 -10 c-7 -2 -21 -2 -30 0 -10 3 -4 5
12 5 17 0 24 -2 18 -5z m85 0 c-10 -2 -26 -2 -35 0 -10 3 -2 5 17 5 19 0 27
-2 18 -5z m3582 -98 c14 -16 16 -80 6 -142 -5 -25 -3 -50 4 -62 6 -12 7 -21 2
-21 -15 0 -30 44 -21 65 14 36 10 129 -7 153 -17 24 -4 31 16 7z m-233 -76 c7
-6 13 -16 13 -22 0 -5 -9 -2 -20 8 -11 10 -33 18 -48 18 -44 -1 -355 -33 -375
-39 -17 -5 -148 -30 -207 -39 -14 -2 -63 -13 -110 -25 -47 -12 -114 -27 -150
-35 -36 -7 -90 -20 -120 -29 -30 -9 -86 -23 -125 -31 -38 -8 -101 -23 -140
-34 -38 -10 -140 -38 -225 -61 -85 -22 -171 -46 -190 -51 -61 -18 -86 -20 -45
-4 45 18 99 33 260 75 61 15 130 35 155 43 25 9 79 23 120 32 41 9 91 20 110
25 266 67 435 105 550 126 169 30 196 34 260 40 36 3 99 9 140 14 83 9 126 6
147 -11z m19 -75 c-9 -28 -12 -31 -14 -14 -3 17 12 50 23 50 1 0 -3 -16 -9
-36z m-34 -56 c-7 -7 -16 -13 -20 -14 -4 0 -40 -4 -81 -8 -40 -5 -94 -10 -120
-12 -25 -1 -56 -6 -68 -10 -14 -4 -23 -2 -23 4 0 6 24 13 53 16 192 20 252 27
256 31 2 3 7 5 10 5 3 0 -1 -6 -7 -12z m293 -37 c7 -12 -25 -17 -200 -32 -274
-22 -705 -100 -1005 -183 -69 -18 -186 -50 -260 -71 -74 -20 -171 -47 -215
-60 -44 -13 -125 -36 -180 -50 -126 -34 -148 -40 -210 -58 -27 -9 -81 -24
-120 -35 -38 -11 -97 -29 -130 -40 -33 -12 -100 -33 -150 -47 -49 -15 -99 -29
-109 -32 -12 -4 -17 -2 -13 4 4 6 37 18 74 28 38 9 77 21 88 26 11 5 29 10 40
12 11 1 25 5 30 8 10 6 124 43 160 52 11 3 65 19 121 36 55 16 118 34 140 40
118 29 194 50 239 65 27 10 99 30 160 46 60 15 157 42 215 58 58 17 121 33
140 37 40 8 95 24 125 36 16 7 153 35 265 54 102 18 193 34 237 44 52 10 191
29 268 36 22 2 67 6 100 10 33 3 84 7 112 8 29 1 53 5 53 10 0 10 18 9 25 -2z
m-685 -9 c0 -4 -64 -16 -142 -25 -127 -15 -215 -32 -285 -53 -13 -3 -23 -2
-23 3 0 13 180 51 300 64 52 5 100 12 105 14 18 7 45 5 45 -3z m53 1 c-7 -2
-21 -2 -30 0 -10 3 -4 5 12 5 17 0 24 -2 18 -5z m-518 -82 c-10 -8 -97 -31
-280 -71 -55 -12 -109 -26 -120 -30 -25 -10 -153 -44 -225 -60 -30 -7 -64 -16
-75 -20 -37 -14 -120 -37 -195 -55 -41 -9 -85 -21 -98 -26 -13 -5 -31 -9 -40
-8 -28 1 22 18 158 54 69 18 202 54 295 80 94 26 186 51 205 55 133 30 346 82
349 86 2 2 11 4 20 4 9 0 11 -3 6 -9z m-915 -100 c0 -5 -15 -13 -32 -16 -18
-4 -80 -23 -137 -41 -58 -19 -107 -32 -109 -29 -3 2 1 7 9 9 93 33 133 46 184
61 33 9 65 18 70 20 6 2 11 4 13 4 1 1 2 -3 2 -8z m-2327 -411 c-4 -4 -60 -24
-123 -45 -174 -57 -566 -215 -734 -295 -342 -163 -761 -378 -978 -503 -128
-74 -345 -196 -483 -272 -137 -76 -326 -180 -418 -231 -93 -52 -172 -94 -175
-94 -4 0 -110 103 -236 229 l-229 229 54 16 c315 92 514 167 964 359 264 113
481 204 483 202 2 -1 -58 -40 -132 -85 -75 -45 -200 -131 -277 -192 -78 -61
-211 -161 -297 -222 -85 -61 -154 -115 -151 -121 12 -29 73 3 364 196 171 113
337 221 370 241 33 19 170 100 306 180 135 80 378 216 540 302 259 136 416
211 834 399 l99 44 113 -165 c63 -91 110 -168 106 -172z m2002 304 c-138 -43
-186 -56 -191 -51 -3 3 27 15 68 27 40 12 89 28 108 35 19 7 39 10 45 7 5 -3
-9 -11 -30 -18z m180 -73 c-9 -8 -162 -57 -205 -66 -8 -2 -28 -8 -43 -14 -34
-13 -44 -14 -31 -2 5 5 56 23 114 40 58 18 114 36 125 41 27 12 52 12 40 1z
m-304 -100 c-7 -5 -43 -16 -80 -25 -36 -10 -74 -21 -83 -27 -10 -5 -24 -9 -31
-9 -12 0 -97 -84 -97 -95 0 -2 10 -9 21 -16 23 -12 66 -3 137 27 38 16 42 17
42 6 0 -11 -129 -52 -163 -52 -16 0 -30 8 -37 20 -10 18 -5 28 30 70 34 40 51
52 98 65 31 9 82 24 112 34 53 18 78 18 51 2z m-6191 -377 c290 -265 431 -405
598 -594 130 -147 159 -175 183 -176 36 0 31 4 285 -265 l213 -226 34 -169
c19 -93 33 -170 32 -172 -2 -2 -221 212 -486 475 -547 540 -619 610 -845 816
l-161 146 10 45 c9 41 7 53 -42 178 -29 73 -55 140 -59 148 -6 18 -3 15 238
-206z m4390 126 c-8 -5 -22 -10 -30 -10 -13 0 -13 1 0 10 8 5 22 10 30 10 13
0 13 -1 0 -10z m-55 -19 c-14 -12 -214 -75 -220 -69 -6 5 191 76 215 77 8 1
10 -2 5 -8z m134 -78 c12 -18 20 -33 18 -33 -6 0 -77 98 -77 106 0 7 22 -21
59 -73z m-379 -7 c-18 -16 -197 -79 -212 -74 -6 2 32 18 83 36 52 18 101 37
109 42 23 15 36 12 20 -4z m420 -45 c0 -10 -24 -21 -43 -21 -7 0 -3 7 7 15 22
17 36 19 36 6z m-60 -20 c0 -5 -44 -24 -97 -42 -54 -17 -105 -34 -113 -37 -10
-3 -12 -2 -5 5 6 6 42 20 80 33 39 12 84 28 100 35 38 17 35 17 35 6z m-590
-21 c0 -5 -12 -13 -27 -16 -16 -4 -32 -10 -38 -14 -5 -4 -39 -17 -75 -30 -36
-12 -77 -31 -92 -41 -14 -11 -31 -19 -37 -19 -6 0 -19 -4 -29 -9 -9 -5 -62
-31 -117 -56 -55 -26 -112 -54 -127 -61 -14 -8 -32 -14 -40 -13 -27 1 528 258
580 269 1 0 2 -4 2 -10z m-4165 -91 c-34 -82 -39 -86 -66 -60 -13 11 -26 21
-30 21 -3 0 -12 -21 -19 -47 -7 -27 -17 -62 -22 -79 -10 -27 -6 -38 36 -110
42 -71 82 -126 285 -384 110 -141 333 -347 851 -787 124 -105 284 -247 355
-316 l130 -125 -114 -56 c-63 -31 -120 -56 -125 -56 -6 0 -74 71 -151 157 -77
86 -183 205 -235 263 -52 58 -147 164 -210 235 -116 130 -451 504 -543 605
-27 30 -115 136 -196 234 -80 99 -170 208 -199 244 -30 35 -52 64 -50 66 1 1
57 49 123 108 120 105 194 162 202 154 2 -2 -8 -32 -22 -67z m4892 34 c26 -34
35 -58 10 -28 l-25 30 -93 -32 c-153 -53 -262 -93 -274 -102 -5 -4 -32 -16
-60 -25 -27 -10 -63 -24 -80 -31 -26 -11 -69 -27 -235 -90 -129 -49 -156 -60
-165 -67 -5 -4 -16 -8 -25 -8 -10 0 -32 -7 -51 -16 -19 -9 -65 -31 -104 -49
-444 -209 -1037 -509 -1175 -595 -8 -5 -40 -24 -70 -41 -179 -105 -337 -202
-407 -250 -23 -16 -44 -29 -48 -29 -3 0 -19 -10 -35 -22 -16 -12 -32 -19 -35
-16 -3 3 40 34 96 69 55 35 126 80 158 100 75 49 192 119 197 119 2 0 37 19
77 43 129 77 215 125 412 227 77 40 156 81 175 90 19 10 95 49 169 85 74 37
141 71 150 76 60 33 439 206 496 225 39 14 77 29 87 34 9 5 60 25 115 45 54
20 107 40 118 45 11 5 63 25 115 45 52 21 135 53 185 72 83 33 295 111 304
112 2 1 10 -7 18 -16z m-367 -7 c0 -2 -44 -19 -97 -36 -54 -18 -138 -49 -188
-70 -250 -105 -571 -244 -624 -270 -33 -17 -62 -30 -66 -30 -3 0 -51 -22 -108
-49 -114 -54 -212 -100 -302 -141 -260 -119 -370 -175 -535 -270 -124 -71
-201 -112 -206 -107 -5 4 61 47 73 47 3 0 34 18 69 40 35 22 66 40 70 40 3 0
32 15 63 34 67 40 196 106 266 136 28 12 86 39 130 60 79 38 231 110 350 165
133 62 187 85 200 85 7 0 18 6 24 14 6 7 33 21 59 31 26 10 81 34 122 53 144
66 259 115 335 142 33 12 76 30 95 39 19 10 73 31 120 46 47 15 92 31 100 36
16 8 50 12 50 5z m421 -73 c13 -16 12 -17 -3 -4 -10 7 -18 15 -18 17 0 8 8 3
21 -13z m89 -124 c17 -28 30 -52 28 -54 -2 -1 -57 -15 -123 -30 -217 -49 -276
-64 -308 -79 -18 -8 -77 -31 -132 -52 -114 -42 -306 -116 -380 -146 -27 -11
-75 -29 -105 -40 -30 -11 -102 -42 -159 -69 -57 -27 -106 -47 -109 -45 -9 9
247 125 333 151 33 10 66 23 74 29 14 11 35 19 155 61 38 14 74 28 80 33 6 5
56 23 111 42 55 18 105 37 112 42 18 14 145 50 218 62 44 7 208 47 214 52 2 2
-9 24 -23 49 -37 62 -25 57 14 -6z m-1475 -10 c-4 -5 -41 -28 -83 -49 -43 -21
-111 -56 -152 -78 -183 -98 -273 -142 -277 -139 -4 4 494 273 510 276 5 0 5
-4 2 -10z m-526 -283 c-2 -1 -74 -39 -159 -84 -153 -79 -271 -143 -300 -162
-8 -5 -44 -26 -80 -46 -36 -20 -81 -47 -100 -59 -19 -12 -91 -55 -160 -95 -69
-40 -136 -80 -150 -89 -14 -9 -50 -29 -80 -45 -30 -16 -62 -34 -70 -41 -8 -6
-45 -28 -81 -48 -43 -24 -69 -45 -73 -59 -9 -37 -7 -136 4 -143 6 -3 10 -13
10 -22 0 -8 10 -28 23 -43 12 -15 44 -59 72 -97 l50 -70 35 15 c19 7 85 36
145 64 61 27 119 53 130 58 27 11 569 281 725 360 167 86 222 111 215 100 -3
-5 -45 -29 -93 -53 -48 -24 -250 -125 -449 -225 -199 -100 -384 -191 -410
-201 -26 -10 -91 -39 -143 -63 -113 -53 -160 -72 -163 -67 -2 2 -34 47 -72 99
-86 119 -106 168 -99 246 3 32 8 62 12 66 8 8 352 211 610 359 85 49 166 97
180 107 23 16 110 63 431 233 19 10 37 16 40 14 2 -3 2 -7 0 -9z m701 -231 c0
-2 -75 -42 -167 -89 -93 -46 -210 -105 -261 -131 -51 -26 -96 -45 -99 -41 -3
3 32 23 78 45 46 23 95 47 109 56 14 8 53 28 88 45 34 16 90 44 125 60 34 17
73 37 87 45 26 15 40 19 40 10z m2244 -149 c-10 -8 -21 -12 -23 -10 -3 2 4 11
15 18 10 8 21 12 23 10 3 -2 -4 -11 -15 -18z m423 -28 c-3 -7 -5 -2 -5 12 0
14 2 19 5 13 2 -7 2 -19 0 -25z m-4022 -88 c-6 -10 -21 -19 -202 -119 -89 -49
-123 -75 -167 -125 -31 -35 -56 -68 -56 -72 0 -4 7 -16 17 -26 9 -10 14 -21
10 -24 -12 -12 -40 46 -31 65 12 24 115 141 125 141 8 0 206 111 259 146 38
25 55 30 45 14z m4006 -47 c-12 -20 -14 -14 -5 12 4 9 9 14 11 11 3 -2 0 -13
-6 -23z"/>
<path d="M4080 8077 c14 -8 27 -12 30 -10 7 6 -23 23 -40 23 -8 0 -4 -6 10
-13z"/>
<path d="M4351 7989 c-1 -30 22 -44 47 -29 14 8 13 9 -7 7 -19 -1 -26 4 -32
23 l-7 25 -1 -26z"/>
<path d="M3954 7864 c3 -9 -10 -44 -31 -82 -20 -37 -32 -62 -26 -57 6 6 27 40
47 76 31 58 34 68 20 73 -12 5 -15 2 -10 -10z"/>
<path d="M3850 7750 c-6 -11 -8 -20 -6 -20 3 0 10 9 16 20 6 11 8 20 6 20 -3
0 -10 -9 -16 -20z"/>
<path d="M3805 7670 c-9 -16 -13 -30 -11 -30 3 0 12 14 21 30 9 17 13 30 11
30 -3 0 -12 -13 -21 -30z"/>
<path d="M3796 7573 c-15 -25 -25 -48 -23 -50 2 -2 16 19 31 47 15 27 25 50
22 50 -2 0 -16 -21 -30 -47z"/>
<path d="M4896 7583 c-6 -14 -5 -15 5 -6 7 7 10 15 7 18 -3 3 -9 -2 -12 -12z"/>
<path d="M4925 7519 c-4 -6 -5 -12 -2 -15 2 -3 7 2 10 11 7 17 1 20 -8 4z"/>
<path d="M3700 7479 c-7 -11 -10 -23 -7 -25 2 -2 9 7 15 21 14 30 7 33 -8 4z"/>
<path d="M4815 7400 c10 -11 20 -20 23 -20 3 0 -3 9 -13 20 -10 11 -20 20 -23
20 -3 0 3 -9 13 -20z"/>
<path d="M3656 7385 c-9 -26 -7 -32 5 -12 6 10 9 21 6 23 -2 3 -7 -2 -11 -11z"/>
<path d="M3670 7338 c-15 -35 -31 -74 -34 -88 l-6 -25 11 25 c46 100 67 150
63 150 -3 0 -18 -28 -34 -62z"/>
<path d="M5172 7160 c-31 -54 -28 -65 4 -12 14 24 24 45 22 47 -2 2 -13 -14
-26 -35z"/>
<path d="M5081 7114 c0 -11 3 -14 6 -6 3 7 2 16 -1 19 -3 4 -6 -2 -5 -13z"/>
<path d="M5056 7073 c-4 -9 -3 -20 1 -24 4 -4 9 3 9 17 2 28 -1 31 -10 7z"/>
<path d="M3676 6998 c42 -40 80 -75 85 -76 6 -2 -26 30 -70 72 -44 42 -82 76
-85 76 -4 0 28 -33 70 -72z"/>
<path d="M4600 7031 c0 -6 4 -13 10 -16 6 -3 7 1 4 9 -7 18 -14 21 -14 7z"/>
<path d="M5076 7017 c3 -10 9 -15 12 -12 3 3 0 11 -7 18 -10 9 -11 8 -5 -6z"/>
<path d="M4638 6953 c5 -21 7 -23 10 -9 2 10 0 22 -6 28 -6 6 -7 0 -4 -19z"/>
<path d="M3418 6943 c34 -2 88 -2 120 0 31 2 3 3 -63 3 -66 0 -92 -1 -57 -3z"/>
<path d="M3656 6878 c44 -33 53 -36 19 -6 -16 15 -34 28 -39 28 -5 0 4 -10 20
-22z"/>
<path d="M3802 6875 c15 -16 29 -27 31 -24 3 2 -10 15 -27 28 l-31 24 27 -28z"/>
<path d="M5436 6853 c-6 -14 -5 -15 5 -6 7 7 10 15 7 18 -3 3 -9 -2 -12 -12z"/>
<path d="M5356 6820 c-22 -56 -19 -65 5 -11 11 24 18 46 15 48 -2 2 -11 -14
-20 -37z"/>
<path d="M3737 6809 c12 -15 73 -53 73 -46 0 2 -19 17 -42 32 -24 16 -38 22
-31 14z"/>
<path d="M3880 6807 c0 -3 21 -22 47 -43 26 -21 44 -33 40 -27 -9 14 -87 77
-87 70z"/>
<path d="M5321 6729 c-6 -18 -9 -34 -7 -36 2 -2 9 10 15 28 6 18 9 34 7 36 -2
2 -9 -10 -15 -28z"/>
<path d="M3834 6732 c8 -13 66 -56 66 -49 0 3 -17 17 -37 33 -20 15 -33 23
-29 16z"/>
<path d="M3480 6696 c0 -2 14 -14 30 -26 17 -12 30 -19 30 -16 0 2 -13 14 -30
26 -16 12 -30 19 -30 16z"/>
<path d="M4030 6675 c13 -14 26 -25 28 -25 3 0 -5 11 -18 25 -13 14 -26 25
-28 25 -3 0 5 -11 18 -25z"/>
<path d="M3944 6642 c8 -13 66 -56 66 -49 0 3 -17 17 -37 33 -20 15 -33 23
-29 16z"/>
<path d="M5291 6634 c0 -11 3 -14 6 -6 3 7 2 16 -1 19 -3 4 -6 -2 -5 -13z"/>
<path d="M5325 6621 c-3 -12 -10 -21 -15 -21 -5 0 -7 -7 -3 -16 4 -12 9 -8 20
16 7 18 11 35 9 37 -2 3 -7 -5 -11 -16z"/>
<path d="M4080 6626 c0 -3 9 -10 20 -16 11 -6 20 -8 20 -6 0 3 -9 10 -20 16
-11 6 -20 8 -20 6z"/>
<path d="M3437 6609 c7 -7 15 -10 18 -7 3 3 -2 9 -12 12 -14 6 -15 5 -6 -5z"/>
<path d="M3600 6606 c0 -2 14 -14 30 -26 17 -12 30 -19 30 -16 0 2 -13 14 -30
26 -16 12 -30 19 -30 16z"/>
<path d="M4130 6596 c0 -3 9 -10 20 -16 11 -6 20 -8 20 -6 0 3 -9 10 -20 16
-11 6 -20 8 -20 6z"/>
<path d="M4053 6552 c4 -6 22 -21 39 -34 17 -12 28 -17 25 -10 -4 6 -22 21
-39 34 -17 12 -28 17 -25 10z"/>
<path d="M3560 6546 c0 -2 7 -7 16 -10 8 -3 12 -2 9 4 -6 10 -25 14 -25 6z"/>
<path d="M3690 6536 c0 -3 20 -19 45 -36 25 -17 45 -29 45 -26 0 3 -20 19 -45
36 -25 17 -45 29 -45 26z"/>
<path d="M4235 6523 c6 -6 28 -20 50 -32 22 -13 31 -15 20 -6 -22 18 -86 53
-70 38z"/>
<path d="M5582 6455 c-17 -37 -14 -45 4 -12 9 16 14 31 11 33 -2 2 -9 -7 -15
-21z"/>
<path d="M3670 6466 c0 -2 8 -10 18 -17 15 -13 16 -12 3 4 -13 16 -21 21 -21
13z"/>
<path d="M4185 6447 c48 -33 75 -49 75 -44 0 6 -77 57 -87 57 -4 0 1 -6 12
-13z"/>
<path d="M5497 6425 c-19 -39 -22 -82 -8 -104 6 -10 8 -1 4 25 -3 28 0 51 12
73 9 18 15 35 13 37 -3 2 -12 -12 -21 -31z"/>
<path d="M4369 6432 c14 -11 38 -27 55 -37 l31 -17 -24 20 c-14 11 -38 27 -55
37 l-31 17 24 -20z"/>
<path d="M3824 6431 c4 -6 16 -16 28 -22 15 -8 18 -8 14 0 -4 6 -16 16 -28 22
-15 8 -18 8 -14 0z"/>
<path d="M5550 6353 c-3 -23 -2 -39 3 -34 5 5 7 24 5 42 -3 33 -4 33 -8 -8z"/>
<path d="M3937 6340 c18 -19 34 -32 36 -29 2 2 -12 17 -32 33 l-36 30 32 -34z"/>
<path d="M4300 6367 c0 -2 19 -17 43 -32 23 -16 37 -22 30 -14 -12 15 -73 53
-73 46z"/>
<path d="M4505 6335 c11 -9 29 -21 40 -26 l20 -10 -20 16 c-11 9 -29 21 -40
26 l-20 10 20 -16z"/>
<path d="M4455 6255 c11 -9 29 -21 40 -26 l20 -10 -20 16 c-11 9 -29 21 -40
26 l-20 10 20 -16z"/>
<path d="M4600 6265 c0 -6 90 -58 95 -54 2 2 -19 16 -46 32 -27 15 -49 25 -49
22z"/>
<path d="M4030 6257 c0 -2 15 -16 33 -33 l32 -29 -29 33 c-28 30 -36 37 -36
29z"/>
<path d="M3970 6190 c6 -11 13 -20 16 -20 2 0 0 9 -6 20 -6 11 -13 20 -16 20
-2 0 0 -9 6 -20z"/>
<path d="M4555 6180 c7 -11 65 -43 65 -36 0 2 -16 13 -36 25 -19 12 -32 16
-29 11z"/>
<path d="M4761 6167 c16 -13 99 -57 99 -53 0 7 -84 56 -95 56 -5 0 -6 -1 -4
-3z"/>
<path d="M4189 6075 c5 -11 17 -29 26 -40 l16 -20 -10 20 c-5 11 -17 29 -26
40 l-16 20 10 -20z"/>
<path d="M4903 6065 c16 -15 31 -25 33 -22 3 3 -10 15 -28 27 l-33 23 28 -28z"/>
<path d="M4720 6066 c0 -3 9 -10 20 -16 11 -6 20 -8 20 -6 0 3 -9 10 -20 16
-11 6 -20 8 -20 6z"/>
<path d="M4080 6034 c0 -5 7 -18 15 -28 8 -11 15 -16 15 -10 0 5 -7 18 -15 28
-8 11 -15 16 -15 10z"/>
<path d="M4239 5995 c8 -16 5 -22 -17 -32 -26 -12 -26 -13 -2 -7 37 9 42 18
24 40 -15 19 -15 19 -5 -1z"/>
<path d="M4871 5989 c-7 -12 -10 -23 -8 -26 3 -3 11 5 17 17 15 28 8 35 -9 9z"/>
<path d="M4078 5963 c7 -3 16 -2 19 1 4 3 -2 6 -13 5 -11 0 -14 -3 -6 -6z"/>
<path d="M4015 5890 c-27 -10 -43 -18 -35 -18 8 0 38 8 65 18 28 10 43 18 35
18 -8 0 -37 -8 -65 -18z"/>
<path d="M3838 5893 c7 -3 16 -2 19 1 4 3 -2 6 -13 5 -11 0 -14 -3 -6 -6z"/>
<path d="M4385 5770 c-11 -5 -16 -9 -10 -9 5 -1 -9 -20 -30 -43 -33 -36 -31
-35 13 7 46 44 58 57 50 54 -2 0 -12 -4 -23 -9z"/>
<path d="M4242 5713 c-24 -8 -41 -17 -39 -19 4 -5 97 26 97 32 0 6 -11 4 -58
-13z"/>
<path d="M5313 5685 c-20 -31 -21 -34 -5 -47 36 -30 55 -39 25 -12 -31 29 -31
29 -13 52 18 22 20 22 45 6 34 -22 32 -13 -3 13 l-28 21 -21 -33z"/>
<path d="M4155 5680 c-13 -6 -15 -9 -5 -9 8 0 22 4 30 9 18 12 2 12 -25 0z"/>
<path d="M4152 5623 c-24 -8 -41 -17 -39 -19 4 -5 97 26 97 32 0 6 -11 4 -58
-13z"/>
<path d="M5440 5626 c0 -3 15 -15 33 -27 23 -17 28 -18 18 -6 -14 18 -51 42
-51 33z"/>
<path d="M5410 5556 c0 -3 15 -15 33 -27 23 -17 28 -18 18 -6 -14 18 -51 42
-51 33z"/>
<path d="M5560 5530 c14 -11 34 -25 45 -31 14 -7 12 -4 -5 11 -14 11 -34 25
-45 31 -14 7 -12 4 5 -11z"/>
<path d="M4590 5520 c25 -4 52 -4 60 1 9 5 -8 8 -45 7 l-60 -1 45 -7z"/>
<path d="M4480 5505 c-19 -7 -28 -13 -20 -13 8 0 31 6 50 13 19 7 28 13 20 13
-8 0 -31 -6 -50 -13z"/>
<path d="M4510 5460 c-8 -5 -10 -10 -5 -10 6 0 17 5 25 10 8 5 11 10 5 10 -5
0 -17 -5 -25 -10z"/>
<path d="M5520 5466 c0 -2 14 -14 30 -26 17 -12 30 -19 30 -16 0 2 -13 14 -30
26 -16 12 -30 19 -30 16z"/>
<path d="M4445 5435 c-25 -12 -26 -14 -5 -9 28 7 60 23 45 23 -5 0 -23 -6 -40
-14z"/>
<path d="M5622 5375 c15 -16 29 -27 31 -24 3 2 -10 15 -27 28 l-31 24 27 -28z"/>
<path d="M4872 5343 c-24 -8 -41 -17 -39 -19 2 -2 22 2 45 10 37 13 41 13 45
-2 3 -12 5 -10 6 6 1 25 0 26 -57 5z"/>
<path d="M4755 5255 c-25 -12 -26 -14 -5 -9 28 7 60 23 45 23 -5 0 -23 -6 -40
-14z"/>
<path d="M4622 5243 c-24 -8 -41 -17 -39 -19 4 -5 97 26 97 32 0 6 -11 4 -58
-13z"/>
<path d="M4580 5185 c-19 -7 -28 -13 -20 -13 8 0 31 6 50 13 19 7 28 13 20 13
-8 0 -31 -6 -50 -13z"/>
<path d="M5395 4970 c-28 -7 -28 -8 -5 -9 14 0 32 4 40 9 17 11 8 11 -35 0z"/>
<path d="M5338 4953 c7 -3 16 -2 19 1 4 3 -2 6 -13 5 -11 0 -14 -3 -6 -6z"/>
<path d="M5185 4910 c-13 -5 -14 -9 -5 -9 8 0 24 4 35 9 13 5 14 9 5 9 -8 0
-24 -4 -35 -9z"/>
<path d="M5138 4893 c7 -3 16 -2 19 1 4 3 -2 6 -13 5 -11 0 -14 -3 -6 -6z"/>
<path d="M8360 7006 c-107 -35 -235 -80 -285 -101 -182 -76 -487 -245 -664
-368 -194 -134 -356 -260 -342 -265 21 -7 177 50 245 90 39 23 166 103 281
179 253 165 360 223 610 325 172 71 324 151 355 189 17 21 19 21 -200 -49z"/>
<path d="M8545 6755 c-121 -35 -292 -91 -380 -125 -88 -34 -184 -71 -213 -82
-72 -27 -479 -243 -572 -303 -152 -98 -283 -215 -241 -215 4 0 93 47 197 104
570 312 857 442 1209 546 167 50 204 65 222 88 25 30 30 52 11 51 -7 0 -112
-29 -233 -64z"/>
<path d="M1475 5930 c-263 -119 -323 -154 -565 -333 -125 -93 -206 -192 -185
-227 13 -20 36 -9 82 41 113 121 433 330 798 523 70 37 170 117 144 115 -8 -1
-131 -54 -274 -119z"/>
<path d="M1955 5820 c-22 -4 -132 -49 -245 -100 -199 -89 -212 -97 -435 -258
-296 -213 -315 -228 -315 -256 0 -30 35 -62 52 -49 7 5 67 53 133 105 167 133
408 285 838 527 31 18 57 34 57 37 0 6 -36 3 -85 -6z"/>
<path d="M2095 5566 c-556 -300 -679 -376 -850 -523 -63 -54 -112 -102 -111
-108 7 -28 56 -3 298 153 367 236 532 331 686 398 108 47 134 62 139 82 14 56
-56 55 -162 -2z"/>
<path d="M2400 5306 c-234 -100 -440 -208 -555 -292 -60 -44 -181 -128 -267
-187 -132 -90 -158 -112 -168 -142 -13 -41 -10 -80 7 -80 7 0 56 36 110 81
124 102 266 197 462 308 218 124 347 205 456 287 132 99 130 100 -45 25z"/>
<path d="M2689 6048 c-7 -28 -5 -38 7 -38 16 0 19 26 4 35 -5 3 -10 5 -11 3z"/>
</g>
</svg>
